PathFileType	4	(X/Y/Z)	 s06c0101.trc
DataRate	CameraRate	NumFrames	NumMarkers	Units	OrigDataRate	OrigDataStartFrame	OrigNumFrames
200	200	5	49	mm	200	1001	2000
Frame#	Time	racr			lacr			c7			jug			rlel			rdr			llel			ldr			s2			lic			ric			lasi			rasi			rpsi			lpsi			rgt			lgt			rth1			rth2			rth3			rth4			rlfc			rmfc			rsh1			rsh2			rsh3			rsh4			rlmal			rmmal			rcal			rtoe			rmt5			lth1			lth2			lth4			lth3			llfc			lmfc			llmal			lcal			lmt5			lsh1			lsh2			lsh3			lsh4			ltoe			SBIKE			LBIKE			RBIKE			
		X1	Y1	Z1	X2	Y2	Z2	X3	Y3	Z3	X4	Y4	Z4	X5	Y5	Z5	X6	Y6	Z6	X7	Y7	Z7	X8	Y8	Z8	X9	Y9	Z9	X10	Y10	Z10	X11	Y11	Z11	X12	Y12	Z12	X13	Y13	Z13	X14	Y14	Z14	X15	Y15	Z15	X16	Y16	Z16	X17	Y17	Z17	X18	Y18	Z18	X19	Y19	Z19	X20	Y20	Z20	X21	Y21	Z21	X22	Y22	Z22	X23	Y23	Z23	X24	Y24	Z24	X25	Y25	Z25	X26	Y26	Z26	X27	Y27	Z27	X28	Y28	Z28	X29	Y29	Z29	X30	Y30	Z30	X31	Y31	Z31	X32	Y32	Z32	X33	Y33	Z33	X34	Y34	Z34	X35	Y35	Z35	X36	Y36	Z36	X37	Y37	Z37	X38	Y38	Z38	X39	Y39	Z39	X40	Y40	Z40	X41	Y41	Z41	X42	Y42	Z42	X43	Y43	Z43	X44	Y44	Z44	X45	Y45	Z45	X46	Y46	Z46	X47	Y47	Z47	X48	Y48	Z48	X49	Y49	Z49	
1001	5.0050	506.914975	1255.232544	-69.965083	529.836413	1241.374690	-360.229556	520.628830	1320.390449	-217.241763	491.016554	1158.904276	-221.974113	503.173270	1024.049442	55.144422	705.341720	933.629990	-38.482434	492.588983	1000.567466	-474.940247	703.806353	926.075577	-407.357215	-39.674472	1173.680965	-236.181712	126.898140	1124.477364	-393.584194	89.182437	1155.331397	-72.260998	141.083946	1074.128636	-359.037424	115.546725	1105.245647	-99.987934	-5.847870	1217.326547	-210.623524	-6.718067	1206.298914	-270.504138	78.585769	1107.269971	-34.555449	88.210094	1044.306828	-427.442684	183.257100	1039.223517	-27.987025	270.814866	1017.444925	-34.321183	333.881156	958.097331	-32.005645	284.210729	1045.040610	-55.857940	404.753106	878.783051	-56.856189	396.426300	850.782769	-170.308645	359.039893	759.204919	-31.444430	339.937443	675.513340	-51.164456	285.008039	608.578467	-51.543756	361.530640	669.320750	-84.599129	238.059029	533.094810	-57.597610	273.987255	534.652748	-149.698053	172.033570	504.659837	-106.040864	443.691850	454.202538	-98.780821	343.292827	446.852694	-31.134990	128.932050	922.242129	-436.890735	191.388127	861.407540	-431.124695	222.524833	880.110873	-422.691412	214.977451	775.680705	-421.936308	245.468959	666.101493	-396.344475	243.695680	657.619567	-278.428095	69.430457	343.858251	-371.871713	5.256515	361.966008	-324.928200	119.767075	204.160727	-404.018091	205.190500	566.213727	-412.581037	183.200385	485.504483	-388.435974	126.043072	419.391956	-390.706574	206.145511	478.820750	-356.748430	188.717361	148.554180	-348.727876	-203.925648	870.937763	-212.555602	-48.769752	84.193184	-419.536728	-50.233153	79.929805	-22.154480	
1002	5.0100	506.604524	1255.863886	-70.089854	529.450361	1240.142008	-361.068659	520.196091	1319.922427	-218.425779	490.743900	1158.356965	-221.680346	502.628357	1023.788695	54.198190	704.694100	933.637879	-38.723729	492.271065	999.926553	-476.678044	703.214004	925.946813	-408.143828	-40.198485	1171.990939	-236.696834	126.594735	1123.126908	-394.216835	89.193472	1152.844590	-72.496852	140.620919	1073.073613	-359.489655	115.963103	1103.250524	-100.720495	-6.484304	1215.102477	-209.946002	-6.731693	1205.093904	-270.053826	77.996008	1103.035654	-34.883221	88.853116	1044.350931	-428.409498	182.452064	1033.329900	-28.207744	269.636156	1009.664976	-34.143196	331.473556	948.660338	-33.136173	283.840657	1037.245722	-55.552753	400.780914	867.756362	-56.751888	393.249604	839.759236	-168.557310	357.139740	748.125088	-31.795842	339.957455	664.455697	-51.562410	286.619980	595.897986	-52.332342	361.483417	658.376854	-84.870560	241.656044	520.790623	-58.165559	277.590322	522.914538	-150.458978	176.238960	490.510826	-106.773950	449.269725	447.845377	-98.806008	348.872410	438.045102	-31.336373	132.125040	924.443570	-436.674456	195.708251	864.877700	-430.061410	226.295295	884.142577	-420.960669	221.029271	779.596639	-421.553552	251.098344	669.332111	-396.857012	249.259495	661.108390	-279.520776	65.540742	352.103074	-372.295624	1.531464	371.647165	-325.205676	113.202261	211.705536	-404.114866	207.378630	570.399352	-413.580454	183.129584	490.346918	-389.300713	124.029127	425.906209	-391.198695	206.055125	483.023213	-357.736867	181.142399	155.048256	-348.631079	-203.961483	870.756859	-212.742002	-48.776570	84.058805	-419.537277	-50.286514	79.885633	-22.167138	
1003	5.0150	506.225794	1256.558202	-70.310951	528.838391	1239.278551	-361.851282	519.783147	1319.512888	-219.534756	490.094837	1157.955191	-221.404215	501.833429	1023.511515	53.295701	704.003971	933.608278	-39.023060	492.002306	999.540693	-478.532254	702.822381	925.696135	-408.817880	-41.061854	1169.895676	-236.591495	126.572134	1121.706722	-394.755027	89.244296	1149.939917	-72.636987	140.236863	1071.907354	-359.950983	116.844405	1101.192253	-101.532936	-7.132073	1212.662084	-209.341692	-7.372398	1203.141279	-269.587087	76.971976	1098.012245	-36.012307	89.524197	1044.639874	-429.327823	181.640217	1026.454635	-28.829182	268.444452	1001.747363	-33.507698	326.995841	940.536552	-30.131074	283.484697	1029.345105	-55.006298	396.610059	856.822699	-56.430717	389.614471	828.664058	-167.692740	355.091066	736.835430	-32.236409	339.970288	652.698164	-52.143307	288.310922	582.931053	-53.196850	361.480165	647.206851	-85.393341	245.228987	508.656063	-58.794916	281.229187	511.329592	-151.259182	180.119022	477.209926	-107.286679	454.385489	440.684047	-98.819952	354.385295	428.090819	-32.166191	135.322231	926.987056	-436.527528	199.993506	868.792058	-429.307646	229.962231	888.420822	-419.305860	227.046602	783.919455	-421.296674	256.247072	672.678658	-397.688605	254.763836	664.262184	-280.994942	61.861429	360.788771	-372.814649	-1.773885	381.699023	-325.579269	107.189514	219.753972	-404.264647	209.645237	574.605130	-415.009837	183.150764	495.583205	-390.565179	122.205668	432.727268	-391.966058	206.177082	487.614047	-359.234633	174.166103	161.995102	-348.493511	-203.950389	870.690726	-212.986245	-48.838649	83.964968	-419.542746	-50.359472	79.832673	-22.208877	
1004	5.0200	505.812751	1257.215267	-70.585016	528.120008	1238.791240	-362.507126	519.308091	1319.236549	-220.610028	489.375867	1157.700966	-221.286225	500.882624	1023.170638	52.454331	703.392781	933.553024	-39.309801	491.819150	999.417351	-480.492463	702.103397	925.608567	-409.694523	-41.925272	1167.581598	-236.001167	126.686564	1120.234822	-395.153057	89.235576	1146.705497	-72.606379	139.927028	1070.593544	-360.284989	117.192968	1098.438625	-101.967720	-7.769383	1210.066604	-208.914756	-8.288775	1200.767936	-269.116860	76.665267	1092.966738	-35.841816	90.321743	1045.095917	-430.143909	180.750580	1020.088603	-28.776094	267.465014	993.372025	-33.113244	325.343946	930.504600	-31.800925	283.149550	1020.980844	-54.997032	392.233012	845.182746	-56.235458	385.617448	818.033772	-166.947952	352.886685	725.324467	-32.531265	339.930701	640.830539	-52.706934	289.989524	569.794678	-54.062934	361.521748	636.164181	-86.045979	248.733532	496.726091	-59.791625	284.656878	499.879389	-151.928081	184.165383	464.214433	-107.945909	459.193582	432.833472	-98.872716	359.277947	418.489303	-32.366456	138.487086	929.628881	-435.741306	204.235341	872.893466	-428.465608	233.633024	892.999714	-417.628002	232.976610	788.383112	-421.109984	261.509626	676.328379	-399.637987	260.228452	666.936902	-282.601810	58.731259	369.850833	-373.314625	-4.560321	392.082363	-326.062014	101.763968	228.160186	-404.386497	212.100916	578.920752	-416.613200	183.443236	500.761736	-391.758695	120.719498	439.820690	-392.843770	206.424800	492.183182	-360.649700	167.755896	169.435024	-348.413140	-203.934333	870.658075	-213.232969	-48.900471	83.912994	-419.595851	-50.409734	79.780388	-22.274627	
1005	5.0250	505.449586	1257.626909	-70.990406	527.229943	1238.408048	-363.109814	518.801339	1318.914087	-221.645885	488.557842	1157.421808	-221.369742	499.692631	1023.121465	51.924425	702.710907	933.469955	-39.731856	491.696607	999.392582	-482.449575	701.121732	925.710138	-410.836423	-42.495073	1165.153103	-236.330229	126.842570	1118.713744	-395.338107	89.228001	1142.940993	-72.592264	139.674230	1069.265444	-360.559333	117.745062	1095.358798	-102.532639	-8.374442	1207.377272	-208.769359	-8.665866	1198.539553	-269.052748	75.912486	1087.390403	-36.580602	91.038394	1045.659263	-430.896566	180.244683	1013.554090	-28.171978	266.319472	985.411456	-32.198139	322.920148	921.230069	-31.778351	282.697531	1012.777972	-54.246030	388.107781	833.823576	-55.693955	381.762697	807.021992	-165.447379	350.597813	713.983929	-32.625553	339.840260	628.891537	-53.423170	291.854500	556.792024	-54.853123	361.672845	625.173753	-86.728830	251.950450	485.133638	-60.366530	287.875929	488.591045	-152.159314	188.153172	451.786671	-108.629021	463.618703	424.219489	-98.938006	363.676054	408.672456	-32.608962	141.475908	932.383002	-435.401590	208.331906	876.961287	-427.766020	237.006328	897.569964	-416.180484	238.897449	793.068797	-421.332425	266.739188	679.868789	-401.336517	266.260978	669.915937	-284.270026	56.198863	379.180266	-373.909393	-6.600640	402.781943	-326.650528	96.987585	236.894916	-404.546481	214.835914	583.517042	-418.256636	184.127182	506.241112	-393.069855	119.619146	447.243220	-393.663172	206.959211	496.840474	-361.848977	162.020051	177.245223	-348.297081	-203.965048	870.585167	-213.526081	-48.941838	83.762975	-419.685236	-50.462896	79.765532	-22.338243	
